<svg width="25" height="16" viewBox="0 0 25 16" fill="none" xmlns="http://www.w3.org/2000/svg">
<path d="M22.5921 0H1.82896C0.818821 0 0 0.818821 0 1.82896V5.33333H24.4211V1.82896C24.4211 0.818821 23.6023 0 22.5921 0Z" fill="#82AFFF"/>
<path d="M0 14.1711C0 15.1812 0.818821 16 1.82896 16H22.5921C23.6022 16 24.4211 15.1812 24.4211 14.1711V10.6667H0V14.1711Z" fill="#82AFFF"/>
<path d="M24.4211 5.33335H0V10.6664H24.4211V5.33335Z" fill="#F5F5F5"/>
<path d="M14.3158 7.89478H12.7998C12.8281 7.87331 12.8505 7.85218 12.8707 7.83225C12.9077 7.79604 12.9371 7.76728 13.0152 7.73518C13.0937 7.70227 13.1349 7.70189 13.1869 7.70108C13.2496 7.70065 13.3205 7.69946 13.4365 7.65171C13.5523 7.60359 13.6028 7.55422 13.6475 7.51067C13.6845 7.47447 13.7139 7.44571 13.7922 7.41318C13.8701 7.3807 13.911 7.38027 13.9628 7.37988C14.0253 7.37903 14.0962 7.37826 14.2121 7.33014L14.1312 7.13601C14.0533 7.16849 14.0123 7.16892 13.9605 7.1693C13.898 7.17016 13.8271 7.17092 13.7114 7.21867C13.5957 7.26679 13.545 7.31616 13.5004 7.35971C13.4634 7.39591 13.434 7.42467 13.3559 7.45677C13.2774 7.48968 13.2363 7.49007 13.1842 7.49088C13.1215 7.49131 13.0506 7.4925 12.9346 7.54062C12.8189 7.58832 12.7683 7.63812 12.7237 7.68167C12.6872 7.7171 12.6571 7.74548 12.5821 7.77716L13.7736 6.58582L13.6247 6.43695L12.5523 7.50929C12.557 7.47423 12.5583 7.44304 12.5586 7.41475C12.5592 7.36252 12.5596 7.32179 12.5921 7.24328C12.6246 7.16477 12.6533 7.13553 12.6896 7.09857C12.7336 7.05373 12.7831 7.00279 12.8312 6.88684C12.8791 6.77088 12.88 6.70015 12.8806 6.63766C12.8812 6.58587 12.8816 6.5447 12.9139 6.46662C12.9464 6.38849 12.9749 6.3593 13.0111 6.32229C13.0549 6.27745 13.1044 6.22685 13.1524 6.11132L12.9579 6.03076C12.9255 6.10884 12.8969 6.13808 12.8607 6.1751C12.8169 6.21993 12.7674 6.27054 12.7194 6.38606C12.6715 6.50201 12.6707 6.57275 12.67 6.63523C12.6694 6.68703 12.669 6.72819 12.6368 6.80628C12.6043 6.88479 12.5755 6.91402 12.5393 6.95099C12.4953 6.99582 12.4457 7.04677 12.3976 7.16272C12.3498 7.27867 12.3489 7.34983 12.3481 7.41232C12.3477 7.46302 12.3463 7.50399 12.3159 7.57926V5.89473H12.1054V7.4107C12.0839 7.3826 12.0628 7.36028 12.0431 7.34006C12.0067 7.30304 11.9781 7.27342 11.9456 7.19534C11.9131 7.11683 11.9125 7.07572 11.9118 7.02344C11.9112 6.96091 11.9104 6.88979 11.8623 6.77384C11.8145 6.65832 11.7648 6.60776 11.7211 6.56288C11.6849 6.52586 11.6563 6.49667 11.6238 6.41854C11.5916 6.34041 11.5911 6.2993 11.5905 6.2475C11.5899 6.18497 11.5891 6.11428 11.5411 5.99871L11.3467 6.07927C11.3789 6.1574 11.3794 6.19813 11.38 6.24989C11.3806 6.31242 11.3814 6.3831 11.4293 6.49906C11.4772 6.61458 11.5268 6.66514 11.5706 6.71002C11.6068 6.74703 11.6353 6.77623 11.6679 6.85435C11.7004 6.93286 11.701 6.97398 11.7016 7.02626C11.7022 7.08879 11.703 7.1599 11.7511 7.27586C11.799 7.39181 11.8486 7.44237 11.8924 7.4872C11.9281 7.52345 11.9563 7.55374 11.988 7.62848L10.7964 6.43705L10.6475 6.58591L11.8373 7.77549C11.772 7.74587 11.7405 7.71863 11.7063 7.68543C11.6613 7.64146 11.6105 7.59171 11.4942 7.54358C11.3782 7.49588 11.3073 7.49464 11.2446 7.49383C11.1923 7.4934 11.1513 7.49264 11.0721 7.45973C10.9929 7.42725 10.9633 7.39849 10.9257 7.3619C10.8807 7.31831 10.8297 7.26861 10.7131 7.22005C10.5967 7.17192 10.5256 7.17111 10.4627 7.1703C10.4103 7.16944 10.369 7.16868 10.2898 7.13577L10.2093 7.33066C10.3256 7.37879 10.3968 7.3796 10.4597 7.38041C10.5121 7.38127 10.5534 7.38203 10.6326 7.41494C10.7119 7.44742 10.7415 7.47619 10.7791 7.51277C10.8241 7.55675 10.8752 7.60607 10.9915 7.65424C11.1079 7.70275 11.179 7.70361 11.2417 7.70442C11.2939 7.70528 11.335 7.70561 11.4138 7.73852C11.4925 7.771 11.522 7.79976 11.5592 7.83601C11.5783 7.85481 11.5997 7.8746 11.6255 7.89483H10.1052V8.10536H11.7867C11.7203 8.13064 11.6788 8.13384 11.6312 8.13455C11.5685 8.13498 11.4975 8.13617 11.3814 8.18392C11.2652 8.23205 11.2142 8.28175 11.1692 8.32539C11.1318 8.36197 11.1024 8.39074 11.0236 8.42322C10.9445 8.45613 10.9032 8.45694 10.8507 8.45775C10.7878 8.45861 10.7167 8.45937 10.6003 8.5075C10.4837 8.55601 10.4328 8.60533 10.3877 8.64935C10.3501 8.68594 10.3205 8.7147 10.2414 8.74718L10.3219 8.94207C10.4383 8.89356 10.4893 8.84424 10.5343 8.80022C10.5719 8.76363 10.6015 8.73487 10.6808 8.70239C10.76 8.66948 10.8013 8.66867 10.8537 8.66786C10.9166 8.667 10.9878 8.66624 11.1044 8.61768C11.2203 8.56955 11.2711 8.52019 11.3161 8.47621C11.3533 8.44001 11.3829 8.41125 11.4619 8.37872C11.5404 8.3458 11.5818 8.34542 11.6338 8.34461C11.6604 8.34447 11.6904 8.3427 11.7229 8.3387L10.6474 9.41408L10.7963 9.56295L11.9854 8.37399C11.9561 8.43896 11.9291 8.47029 11.8958 8.50459C11.852 8.54942 11.8025 8.60037 11.7543 8.71632C11.7062 8.83227 11.7051 8.90386 11.7046 8.9663C11.7037 9.01853 11.7034 9.0596 11.6706 9.13858C11.6379 9.21795 11.6089 9.24752 11.5725 9.28497C11.5286 9.3298 11.479 9.38117 11.4307 9.49755C11.3824 9.61394 11.3815 9.6851 11.3807 9.74797C11.3799 9.80019 11.3793 9.84169 11.3466 9.92063L11.5411 10.0012C11.5894 9.88481 11.5903 9.81364 11.591 9.75078C11.5919 9.69855 11.5925 9.65705 11.6251 9.57811C11.6578 9.49875 11.6868 9.46917 11.7232 9.43173C11.7672 9.3869 11.8167 9.33553 11.8651 9.21914C11.9132 9.10319 11.9142 9.0316 11.9148 8.96916C11.9157 8.91693 11.916 8.87587 11.9488 8.79688C11.9812 8.71794 12.01 8.6887 12.0464 8.65131C12.0651 8.63213 12.085 8.61076 12.1052 8.58477V10.1053H12.3157V8.42384C12.3408 8.49014 12.344 8.53159 12.3447 8.57938C12.3454 8.64191 12.3464 8.71303 12.3945 8.82898C12.4424 8.94536 12.4921 8.99635 12.536 9.04114C12.5723 9.07858 12.6011 9.10815 12.6338 9.18709C12.6665 9.26603 12.6671 9.30757 12.6679 9.35976C12.6688 9.42267 12.6695 9.49379 12.7178 9.61017C12.7662 9.72655 12.8157 9.77797 12.8597 9.82275C12.896 9.8602 12.925 9.88977 12.9578 9.96914L13.1522 9.88858C13.1039 9.7722 13.0544 9.72078 13.0104 9.67599C12.974 9.63855 12.945 9.60897 12.9123 9.52961C12.8796 9.45067 12.879 9.40912 12.8782 9.35694C12.8773 9.29403 12.8766 9.22291 12.8283 9.10653C12.7801 8.99015 12.7306 8.93916 12.6868 8.89437C12.6504 8.85693 12.6216 8.82736 12.589 8.74842C12.5563 8.66991 12.5559 8.62879 12.555 8.57652C12.5547 8.54995 12.553 8.5199 12.549 8.48742L13.6247 9.56299L13.7735 9.41413L12.7012 8.34199C12.736 8.34662 12.7672 8.348 12.7953 8.34838C12.8473 8.34881 12.8883 8.34924 12.9668 8.38167C13.0453 8.41458 13.0747 8.44292 13.1119 8.4795C13.1567 8.5231 13.2075 8.5728 13.3235 8.62097C13.4392 8.66867 13.5102 8.66948 13.5727 8.66991C13.6245 8.67077 13.6654 8.6711 13.7435 8.70363C13.8216 8.73568 13.8508 8.76449 13.8878 8.8007C13.9327 8.84429 13.9833 8.89399 14.099 8.94217L14.1796 8.74727C14.1014 8.71522 14.0722 8.68641 14.0352 8.65021C13.9904 8.60661 13.9398 8.55691 13.8241 8.50874C13.7083 8.46104 13.6374 8.46023 13.5749 8.4598C13.5231 8.45894 13.4822 8.45861 13.4041 8.42608C13.3255 8.3936 13.2961 8.36522 13.2589 8.32859C13.2141 8.28499 13.1633 8.23529 13.0473 8.18754C12.9314 8.13904 12.8605 8.13818 12.7977 8.1378C12.7467 8.13694 12.7053 8.13598 12.6296 8.10531H14.3157V7.89478H14.3158V7.89478Z" fill="#F09146"/>
<path d="M12.2106 9.0527C12.792 9.0527 13.2633 8.5814 13.2633 8.00002C13.2633 7.41864 12.792 6.94733 12.2106 6.94733C11.6293 6.94733 11.158 7.41864 11.158 8.00002C11.158 8.5814 11.6293 9.0527 12.2106 9.0527Z" fill="#FFE15A"/>
</svg>
