<svg width="25" height="16" viewBox="0 0 25 16" fill="none" xmlns="http://www.w3.org/2000/svg">
<path d="M22.592 0H1.82895C0.818817 0 0 0.818817 0 1.82895V14.1711C0 15.1811 0.818817 16 1.82895 16H22.592C23.6021 16 24.4209 15.1812 24.4209 14.1711V1.82895C24.4209 0.818817 23.6021 0 22.592 0Z" fill="#05AB41"/>
<path d="M11.9915 2.23857L3.11719 7.6403C2.84765 7.80433 2.84765 8.19554 3.11719 8.35962L11.9915 13.7615C12.126 13.8433 12.2949 13.8433 12.4294 13.7615L21.3037 8.35967C21.5733 8.19564 21.5733 7.80443 21.3037 7.64035L12.4294 2.23857C12.2949 2.15677 12.126 2.15677 11.9915 2.23857Z" fill="#FDD216"/>
<path d="M12.2104 11.3684C14.0707 11.3684 15.5788 9.86032 15.5788 8.00002C15.5788 6.13972 14.0707 4.63165 12.2104 4.63165C10.3501 4.63165 8.84204 6.13972 8.84204 8.00002C8.84204 9.86032 10.3501 11.3684 12.2104 11.3684Z" fill="#053087"/>
<path d="M9.32001 6.27688C9.16108 6.54293 9.03836 6.83208 8.95728 7.13911C10.8246 6.99859 13.5868 7.52097 15.3449 9.22697C15.4597 8.93406 15.5355 8.62202 15.5639 8.29582C13.7485 6.76792 11.2388 6.2246 9.32001 6.27688Z" fill="#F5F5F5"/>
<path d="M12.3501 9.14953L12.4397 9.41845L12.7232 9.42064C12.7599 9.42093 12.7751 9.46777 12.7456 9.48957L12.5175 9.65799L12.603 9.92824C12.6141 9.96325 12.5742 9.9922 12.5444 9.97083L12.3138 9.80599L12.0832 9.97083C12.0533 9.99215 12.0135 9.96325 12.0246 9.92824L12.1101 9.65799L11.882 9.48957C11.8525 9.46777 11.8677 9.42093 11.9044 9.42064L12.1879 9.41845L12.2775 9.14953C12.2892 9.11467 12.3384 9.11467 12.3501 9.14953Z" fill="#F5F5F5"/>
<path d="M13.4517 9.84516L13.4903 9.96088L13.6123 9.96183C13.6281 9.96193 13.6346 9.98211 13.6219 9.9915L13.5238 10.064L13.5606 10.1803C13.5653 10.1954 13.5482 10.2078 13.5353 10.1986L13.436 10.1277L13.3367 10.1986C13.3239 10.2078 13.3067 10.1954 13.3115 10.1803L13.3483 10.064L13.2501 9.9915C13.2374 9.98215 13.244 9.96198 13.2598 9.96183L13.3818 9.96088L13.4204 9.84516C13.4255 9.83014 13.4467 9.83014 13.4517 9.84516Z" fill="#F5F5F5"/>
<path d="M11.8738 8.63857L11.9124 8.75429L12.0344 8.75525C12.0502 8.75534 12.0567 8.77552 12.044 8.78491L11.9459 8.85737L11.9826 8.97371C11.9873 8.98878 11.9703 9.00123 11.9574 8.99203L11.8581 8.9211L11.7589 8.99203C11.7461 9.00123 11.7289 8.98878 11.7336 8.97371L11.7704 8.85737L11.6722 8.78491C11.6595 8.77557 11.6661 8.75539 11.6819 8.75525L11.8039 8.75429L11.8424 8.63857C11.8476 8.62369 11.8688 8.62369 11.8738 8.63857Z" fill="#F5F5F5"/>
<path d="M9.73635 8.49832L9.77494 8.61403L9.89695 8.61499C9.91273 8.61508 9.91932 8.63526 9.90658 8.64465L9.80842 8.7171L9.8452 8.83344C9.84992 8.84851 9.83284 8.86096 9.81992 8.85175L9.72066 8.78083L9.62141 8.85175C9.60858 8.86091 9.59141 8.84851 9.59618 8.83344L9.63295 8.7171L9.53479 8.64465C9.52206 8.6353 9.52864 8.61513 9.54443 8.61499L9.66643 8.61403L9.70502 8.49832C9.71017 8.48339 9.73135 8.48339 9.73635 8.49832Z" fill="#F5F5F5"/>
<path d="M11.5244 9.8053L11.563 9.92101L11.685 9.92196C11.7008 9.92206 11.7074 9.94223 11.6947 9.95163L11.5965 10.0241L11.6333 10.1404C11.638 10.1555 11.6209 10.1679 11.608 10.1587L11.5088 10.0878L11.4095 10.1587C11.3967 10.1679 11.3795 10.1555 11.3842 10.1404L11.421 10.0241L11.3229 9.95163C11.3102 9.94228 11.3167 9.9221 11.3325 9.92196L11.4545 9.92101L11.4931 9.8053C11.4982 9.79032 11.5195 9.79032 11.5244 9.8053Z" fill="#F5F5F5"/>
<path d="M10.5406 8.41754L10.5722 8.51217L10.6719 8.51298C10.6848 8.51308 10.6902 8.52958 10.6799 8.53726L10.5996 8.59649L10.6297 8.69159C10.6336 8.7039 10.6196 8.71411 10.609 8.70657L10.5278 8.64857L10.4467 8.70657C10.4361 8.71411 10.4221 8.7039 10.426 8.69159L10.4561 8.59649L10.3758 8.53726C10.3655 8.52958 10.3708 8.51308 10.3837 8.51298L10.4835 8.51217L10.5151 8.41754C10.5192 8.40533 10.5365 8.40533 10.5406 8.41754Z" fill="#F5F5F5"/>
<path d="M13.5374 6.46392L13.5769 6.58231L13.7017 6.58326C13.7178 6.58336 13.7245 6.60401 13.7115 6.61364L13.6111 6.68777L13.6488 6.80677C13.6537 6.82218 13.6361 6.83491 13.623 6.82552L13.5214 6.75292L13.4199 6.82552C13.4067 6.83496 13.3892 6.82213 13.3941 6.80677L13.4317 6.68777L13.3313 6.61364C13.3183 6.60406 13.325 6.58345 13.3412 6.58326L13.4659 6.58231L13.5054 6.46392C13.5106 6.44847 13.5323 6.44847 13.5374 6.46392Z" fill="#F5F5F5"/>
<path d="M9.87385 7.83869L9.90543 7.93332L10.0052 7.93413C10.0181 7.93422 10.0235 7.95073 10.0131 7.95841L9.93285 8.01764L9.96295 8.11275C9.96686 8.12505 9.95284 8.13526 9.9423 8.12772L9.86112 8.06973L9.77993 8.12772C9.76939 8.13526 9.75542 8.12505 9.75928 8.11275L9.78938 8.01764L9.7091 7.95841C9.6987 7.95073 9.70405 7.93427 9.71702 7.93413L9.8168 7.93332L9.84838 7.83869C9.85243 7.82643 9.86975 7.82643 9.87385 7.83869Z" fill="#F5F5F5"/>
<path d="M10.3555 9.17258L10.4033 9.31591L10.5544 9.31705C10.574 9.31719 10.5821 9.34214 10.5663 9.35378L10.4448 9.44354L10.4904 9.58758C10.4963 9.60623 10.475 9.62168 10.4591 9.61028L10.3361 9.52238L10.2132 9.61028C10.1973 9.62163 10.176 9.60623 10.1819 9.58758L10.2275 9.44354L10.106 9.35378C10.0902 9.34214 10.0983 9.31719 10.1179 9.31705L10.269 9.31591L10.3168 9.17258C10.3231 9.15398 10.3494 9.15398 10.3555 9.17258Z" fill="#F5F5F5"/>
<path d="M14.066 9.87519L14.0961 9.96538L14.1911 9.9661C14.2034 9.96619 14.2085 9.98189 14.1987 9.98918L14.1222 10.0457L14.1509 10.1363C14.1546 10.148 14.1412 10.1577 14.1312 10.1505L14.0539 10.0953L13.9765 10.1505C13.9665 10.1577 13.9531 10.148 13.9568 10.1363L13.9855 10.0457L13.909 9.98918C13.8991 9.98189 13.9042 9.96619 13.9165 9.9661L14.0116 9.96538L14.0417 9.87519C14.0456 9.8635 14.0621 9.8635 14.066 9.87519Z" fill="#F5F5F5"/>
<path d="M14.3986 9.18699L14.4372 9.3027L14.5592 9.30366C14.575 9.30375 14.5816 9.32393 14.5689 9.33333L14.4707 9.40578L14.5075 9.52212C14.5122 9.53719 14.4951 9.54964 14.4823 9.54043L14.383 9.46951L14.2837 9.54043C14.2709 9.54964 14.2537 9.53719 14.2585 9.52212L14.2953 9.40578L14.1971 9.33333C14.1844 9.32398 14.191 9.3038 14.2068 9.30366L14.3288 9.3027L14.3674 9.18699C14.3724 9.17196 14.3936 9.17196 14.3986 9.18699Z" fill="#F5F5F5"/>
</svg>
