<svg width="25" height="16" viewBox="0 0 25 16" fill="none" xmlns="http://www.w3.org/2000/svg">
<path d="M22.592 9.15527e-05H7.57898C7.8115 9.15527e-05 8.00005 0.188637 8.00005 0.42116V7.57899C8.00005 7.81151 7.8115 8.00006 7.57898 8.00006H24.4209V1.82903C24.4209 0.818905 23.6021 9.15527e-05 22.592 9.15527e-05Z" fill="#F5F5F5"/>
<path d="M0.842089 8.00003H0.421068C0.188546 8.00003 0 7.81149 0 7.57896V8.00003V8.4211V14.1711C0 15.1811 0.818813 16 1.82894 16H22.5919C23.602 16 24.4208 15.1812 24.4208 14.1711V8.00003H7.5789H0.842089Z" fill="#FF4B55"/>
<path d="M0.421068 7.99997H0.842137H7.5789C7.81142 7.99997 7.99997 7.81142 7.99997 7.5789V0.421068C7.99997 0.188546 7.81142 0 7.5789 0H1.82894C0.818813 4.76969e-05 0 0.818861 0 1.82899V7.57895C0 7.81142 0.188546 7.99997 0.421068 7.99997Z" fill="#41479B"/>
<path d="M4.16216 2.20425L4.56358 3.40783L5.83232 3.41766C5.99659 3.4189 6.0647 3.62858 5.93253 3.72612L4.91191 4.47978L5.29458 5.68946C5.34409 5.8461 5.1658 5.9756 5.03215 5.88011L3.99999 5.14238L2.96778 5.88016C2.83414 5.97569 2.65585 5.8461 2.70536 5.68951L3.08803 4.47982L2.06741 3.72616C1.93524 3.62858 2.0034 3.41895 2.16762 3.41771L3.43636 3.40788L3.83778 2.2043C3.88977 2.04842 4.11022 2.04842 4.16216 2.20425Z" fill="#F5F5F5"/>
</svg>
