<svg width="25" height="16" viewBox="0 0 25 16" fill="none" xmlns="http://www.w3.org/2000/svg">
<path d="M22.5919 6.10352e-05H1.82894C0.818814 6.10352e-05 0 0.818875 0 1.829V14.171C0 15.1811 0.818814 16 1.82894 16H22.5919C23.602 16 24.4209 15.1812 24.4209 14.171V1.829C24.4209 0.818875 23.602 6.10352e-05 22.5919 6.10352e-05Z" fill="#F5F5F5"/>
<path d="M0.10083 1.23086H24.3205C24.0726 0.514599 23.3927 9.15527e-05 22.5922 9.15527e-05H1.82918C1.02863 9.15527e-05 0.348711 0.514599 0.10083 1.23086Z" fill="#FF4B55"/>
<path d="M24.4209 4.92313H0V6.15385H24.4209V4.92313Z" fill="#FF4B55"/>
<path d="M24.4209 2.46143H0V3.69215H24.4209V2.46143Z" fill="#FF4B55"/>
<path d="M0 8.19429C0 8.42681 0.188546 8.61536 0.421069 8.61536H24.4209V7.38461H0V8.19429Z" fill="#FF4B55"/>
<path d="M24.4209 12.3079H0V13.5387H24.4209V12.3079Z" fill="#FF4B55"/>
<path d="M24.3205 14.7691H0.10083C0.348711 15.4854 1.02868 15.9999 1.82918 15.9999H22.5922C23.3927 15.9999 24.0726 15.4854 24.3205 14.7691Z" fill="#FF4B55"/>
<path d="M24.4209 9.8464H0V11.0771H24.4209V9.8464Z" fill="#FF4B55"/>
<path d="M0.421069 8.61536H10.9473C11.1798 8.61536 11.3684 8.42682 11.3684 8.19429V0.421069C11.3684 0.188498 11.1798 0 10.9473 0H1.82894C0.818814 4.7697e-05 0 0.818862 0 1.82899V8.19429C0 8.42687 0.188546 8.61536 0.421069 8.61536Z" fill="#41479B"/>
<path d="M1.18224 0.966591L1.27544 1.2461L1.57006 1.24834C1.60822 1.24867 1.62401 1.29732 1.59334 1.31998L1.35633 1.49498L1.44524 1.77587C1.45678 1.81221 1.41533 1.84236 1.38428 1.82013L1.14461 1.64885L0.904929 1.82018C0.873878 1.8424 0.832525 1.81226 0.843973 1.77591L0.932879 1.49503L0.695874 1.32003C0.665205 1.29732 0.680992 1.24867 0.71915 1.24838L1.01377 1.24614L1.10697 0.966639C1.11899 0.930389 1.17012 0.930389 1.18224 0.966591Z" fill="#F5F5F5"/>
<path d="M1.18224 2.42861L1.27544 2.70811L1.57006 2.71036C1.60822 2.71069 1.62401 2.75929 1.59334 2.782L1.35633 2.95705L1.44524 3.23794C1.45678 3.27429 1.41533 3.30443 1.38428 3.2822L1.14461 3.11092L0.904929 3.28225C0.873878 3.30443 0.832525 3.27433 0.843973 3.23799L0.932879 2.9571L0.695874 2.78205C0.665205 2.75934 0.680992 2.71074 0.71915 2.7104L1.01377 2.70816L1.10697 2.42865C1.11899 2.39245 1.17012 2.39245 1.18224 2.42861Z" fill="#F5F5F5"/>
<path d="M1.18224 3.8908L1.27544 4.17031L1.57006 4.17255C1.60822 4.17288 1.62401 4.22149 1.59334 4.24419L1.35633 4.41924L1.44524 4.70013C1.45678 4.73647 1.41533 4.76662 1.38428 4.74439L1.14461 4.57311L0.904929 4.74444C0.873878 4.76662 0.832525 4.73657 0.843973 4.70017L0.932879 4.41928L0.695874 4.24424C0.665205 4.22153 0.680992 4.17293 0.71915 4.1726L1.01377 4.17035L1.10697 3.89085C1.11899 3.8546 1.17012 3.8546 1.18224 3.8908Z" fill="#F5F5F5"/>
<path d="M1.18224 5.35283L1.27544 5.63233L1.57006 5.63457C1.60822 5.6349 1.62401 5.68356 1.59334 5.70621L1.35633 5.88126L1.44524 6.16214C1.45678 6.19849 1.41533 6.22863 1.38428 6.2064L1.14461 6.03513L0.904929 6.20645C0.873878 6.22863 0.832525 6.19853 0.843973 6.16219L0.932879 5.8813L0.695874 5.70626C0.665205 5.68365 0.680992 5.63495 0.71915 5.63462L1.01377 5.63238L1.10697 5.35288C1.11899 5.31663 1.17012 5.31663 1.18224 5.35283Z" fill="#F5F5F5"/>
<path d="M1.18224 6.81491L1.27544 7.09441L1.57006 7.09665C1.60822 7.09699 1.62401 7.14559 1.59334 7.16829L1.35633 7.34334L1.44524 7.62423C1.45678 7.66057 1.41533 7.69072 1.38428 7.66849L1.14461 7.49721L0.904929 7.66854C0.873878 7.69072 0.832525 7.66062 0.843973 7.62428L0.932879 7.34339L0.695874 7.16834C0.665205 7.14564 0.680992 7.09703 0.71915 7.0967L1.01377 7.09446L1.10697 6.81495C1.11899 6.77875 1.17012 6.77875 1.18224 6.81491Z" fill="#F5F5F5"/>
<path d="M2.317 1.6833L2.4102 1.9628L2.70483 1.96505C2.74298 1.96538 2.75877 2.01403 2.7281 2.03669L2.4911 2.21174L2.58 2.49263C2.59155 2.52897 2.5501 2.55912 2.51905 2.53689L2.27937 2.36556L2.03969 2.53689C2.00864 2.55907 1.96729 2.52897 1.97874 2.49263L2.06765 2.21174L1.83064 2.03669C1.79997 2.01398 1.81576 1.96538 1.85392 1.96505L2.14854 1.9628L2.24174 1.6833C2.25376 1.64714 2.30494 1.64714 2.317 1.6833Z" fill="#F5F5F5"/>
<path d="M2.317 3.14554L2.4102 3.42505L2.70483 3.42729C2.74298 3.42763 2.75877 3.47628 2.7281 3.49893L2.4911 3.67398L2.58 3.95487C2.59155 3.99121 2.5501 4.02136 2.51905 3.99913L2.27937 3.8278L2.03969 3.99913C2.00864 4.02131 1.96729 3.99126 1.97874 3.95487L2.06765 3.67398L1.83064 3.49893C1.79997 3.47632 1.81576 3.42763 1.85392 3.42729L2.14854 3.42505L2.24174 3.14554C2.25376 3.10934 2.30494 3.10934 2.317 3.14554Z" fill="#F5F5F5"/>
<path d="M2.317 4.60757L2.4102 4.88707L2.70483 4.88931C2.74298 4.88965 2.75877 4.93825 2.7281 4.96095L2.4911 5.136L2.58 5.41689C2.59155 5.45324 2.5501 5.48338 2.51905 5.46116L2.27937 5.28983L2.03969 5.46116C2.00864 5.48334 1.96729 5.45324 1.97874 5.41689L2.06765 5.136L1.83064 4.96095C1.79997 4.93825 1.81576 4.88965 1.85392 4.88931L2.14854 4.88707L2.24174 4.60757C2.25376 4.57136 2.30494 4.57136 2.317 4.60757Z" fill="#F5F5F5"/>
<path d="M2.317 6.0696L2.4102 6.34911L2.70483 6.35135C2.74298 6.35168 2.75877 6.40029 2.7281 6.42299L2.4911 6.59804L2.58 6.87892C2.59155 6.91527 2.5501 6.94541 2.51905 6.92319L2.27937 6.75186L2.03969 6.92319C2.00864 6.94541 1.96729 6.91527 1.97874 6.87892L2.06765 6.59804L1.83064 6.42299C1.79997 6.40029 1.81576 6.35168 1.85392 6.35135L2.14854 6.34911L2.24174 6.0696C2.25376 6.03345 2.30494 6.03345 2.317 6.0696Z" fill="#F5F5F5"/>
<path d="M3.45201 0.966483L3.54521 1.24599L3.83984 1.24823C3.87799 1.24856 3.89378 1.29721 3.86311 1.31987L3.62611 1.49487L3.71501 1.77576C3.72656 1.8121 3.68511 1.84225 3.65406 1.82002L3.41438 1.64869L3.1747 1.82002C3.14365 1.84225 3.1023 1.8121 3.11375 1.77576L3.20265 1.49487L2.96565 1.31987C2.93498 1.29717 2.95077 1.24852 2.98893 1.24823L3.28355 1.24599L3.37675 0.966483C3.38877 0.930281 3.43995 0.930281 3.45201 0.966483Z" fill="#F5F5F5"/>
<path d="M3.45201 2.42861L3.54521 2.70812L3.83984 2.71036C3.87799 2.71069 3.89378 2.7593 3.86311 2.782L3.62611 2.95705L3.71501 3.23793C3.72656 3.27428 3.68511 3.30442 3.65406 3.2822L3.41438 3.11087L3.1747 3.2822C3.14365 3.30437 3.1023 3.27428 3.11375 3.23793L3.20265 2.95705L2.96565 2.782C2.93498 2.7593 2.95077 2.71069 2.98893 2.71036L3.28355 2.70812L3.37675 2.42861C3.38877 2.39246 3.43995 2.39246 3.45201 2.42861Z" fill="#F5F5F5"/>
<path d="M3.45201 3.89081L3.54521 4.17031L3.83984 4.17255C3.87799 4.17289 3.89378 4.22149 3.86311 4.24419L3.62611 4.41924L3.71501 4.70013C3.72656 4.73647 3.68511 4.76662 3.65406 4.74439L3.41438 4.57306L3.1747 4.74439C3.14365 4.76657 3.1023 4.73652 3.11375 4.70013L3.20265 4.41924L2.96565 4.24419C2.93498 4.22149 2.95077 4.17289 2.98893 4.17255L3.28355 4.17031L3.37675 3.89081C3.38877 3.8546 3.43995 3.8546 3.45201 3.89081Z" fill="#F5F5F5"/>
<path d="M3.45201 5.35284L3.54521 5.63234L3.83984 5.63458C3.87799 5.63492 3.89378 5.68357 3.86311 5.70622L3.62611 5.88127L3.71501 6.16216C3.72656 6.19851 3.68511 6.22865 3.65406 6.20643L3.41438 6.0351L3.1747 6.20643C3.14365 6.22861 3.1023 6.19851 3.11375 6.16216L3.20265 5.88127L2.96565 5.70622C2.93498 5.68362 2.95077 5.63492 2.98893 5.63458L3.28355 5.63234L3.37675 5.35284C3.38877 5.31663 3.43995 5.31663 3.45201 5.35284Z" fill="#F5F5F5"/>
<path d="M3.45201 6.81487L3.54521 7.09437L3.83984 7.09661C3.87799 7.09694 3.89378 7.14555 3.86311 7.16825L3.62611 7.3433L3.71501 7.62419C3.72656 7.66053 3.68511 7.69068 3.65406 7.66845L3.41438 7.49712L3.1747 7.66845C3.14365 7.69063 3.1023 7.66053 3.11375 7.62419L3.20265 7.3433L2.96565 7.16825C2.93498 7.14555 2.95077 7.09694 2.98893 7.09661L3.28355 7.09437L3.37675 6.81487C3.38877 6.77871 3.43995 6.77871 3.45201 6.81487Z" fill="#F5F5F5"/>
<path d="M4.58654 1.6833L4.67974 1.9628L4.97436 1.96505C5.01252 1.96538 5.02831 2.01403 4.99764 2.03669L4.76063 2.21174L4.84954 2.49263C4.86108 2.52897 4.81963 2.55912 4.78858 2.53689L4.5489 2.36556L4.30923 2.53689C4.27818 2.55907 4.23682 2.52897 4.24827 2.49263L4.33718 2.21174L4.10017 2.03669C4.0695 2.01398 4.08529 1.96538 4.12345 1.96505L4.41807 1.9628L4.51127 1.6833C4.52324 1.64714 4.57447 1.64714 4.58654 1.6833Z" fill="#F5F5F5"/>
<path d="M4.58654 3.14554L4.67974 3.42505L4.97436 3.42729C5.01252 3.42763 5.02831 3.47628 4.99764 3.49893L4.76063 3.67398L4.84954 3.95487C4.86108 3.99121 4.81963 4.02136 4.78858 3.99913L4.5489 3.8278L4.30923 3.99913C4.27818 4.02131 4.23682 3.99126 4.24827 3.95487L4.33718 3.67398L4.10017 3.49893C4.0695 3.47632 4.08529 3.42763 4.12345 3.42729L4.41807 3.42505L4.51127 3.14554C4.52324 3.10934 4.57447 3.10934 4.58654 3.14554Z" fill="#F5F5F5"/>
<path d="M4.58654 4.60757L4.67974 4.88707L4.97436 4.88931C5.01252 4.88965 5.02831 4.93825 4.99764 4.96095L4.76063 5.136L4.84954 5.41689C4.86108 5.45324 4.81963 5.48338 4.78858 5.46116L4.5489 5.28983L4.30923 5.46116C4.27818 5.48334 4.23682 5.45324 4.24827 5.41689L4.33718 5.136L4.10017 4.96095C4.0695 4.93825 4.08529 4.88965 4.12345 4.88931L4.41807 4.88707L4.51127 4.60757C4.52324 4.57136 4.57447 4.57136 4.58654 4.60757Z" fill="#F5F5F5"/>
<path d="M4.58654 6.0696L4.67974 6.34911L4.97436 6.35135C5.01252 6.35168 5.02831 6.40029 4.99764 6.42299L4.76063 6.59804L4.84954 6.87892C4.86108 6.91527 4.81963 6.94541 4.78858 6.92319L4.5489 6.75186L4.30923 6.92319C4.27818 6.94541 4.23682 6.91527 4.24827 6.87892L4.33718 6.59804L4.10017 6.42299C4.0695 6.40029 4.08529 6.35168 4.12345 6.35135L4.41807 6.34911L4.51127 6.0696C4.52324 6.03345 4.57447 6.03345 4.58654 6.0696Z" fill="#F5F5F5"/>
<path d="M5.7216 0.966477L5.8148 1.24598L6.10942 1.24822C6.14758 1.24856 6.16337 1.29721 6.1327 1.31986L5.89569 1.49486L5.9846 1.77575C5.99614 1.8121 5.95469 1.84224 5.92364 1.82001L5.68392 1.64873L5.44424 1.82006C5.41319 1.84229 5.37183 1.81214 5.38328 1.7758L5.47219 1.49491L5.23518 1.31991C5.20451 1.29721 5.2203 1.24856 5.25846 1.24827L5.55308 1.24603L5.64628 0.966524C5.65835 0.930275 5.70953 0.930275 5.7216 0.966477Z" fill="#F5F5F5"/>
<path d="M5.7216 2.42861L5.8148 2.70812L6.10942 2.71036C6.14758 2.71069 6.16337 2.7593 6.1327 2.782L5.89569 2.95705L5.9846 3.23793C5.99614 3.27428 5.95469 3.30442 5.92364 3.2822L5.68392 3.11087L5.44424 3.2822C5.41319 3.30437 5.37183 3.27428 5.38328 3.23793L5.47219 2.95705L5.23518 2.782C5.20451 2.7593 5.2203 2.71069 5.25846 2.71036L5.55308 2.70812L5.64628 2.42861C5.65835 2.39246 5.70953 2.39246 5.7216 2.42861Z" fill="#F5F5F5"/>
<path d="M5.7216 3.89081L5.8148 4.17032L6.10942 4.17256C6.14758 4.17289 6.16337 4.2215 6.1327 4.2442L5.89569 4.41925L5.9846 4.70013C5.99614 4.73648 5.95469 4.76662 5.92364 4.7444L5.68392 4.57302L5.44424 4.74435C5.41319 4.76653 5.37183 4.73643 5.38328 4.70009L5.47219 4.4192L5.23518 4.24415C5.20451 4.22145 5.2203 4.17284 5.25846 4.17251L5.55308 4.17027L5.64628 3.89077C5.65835 3.85461 5.70953 3.85461 5.7216 3.89081Z" fill="#F5F5F5"/>
<path d="M5.7216 5.35284L5.8148 5.63234L6.10942 5.63458C6.14758 5.63492 6.16337 5.68357 6.1327 5.70622L5.89569 5.88127L5.9846 6.16216C5.99614 6.19851 5.95469 6.22865 5.92364 6.20643L5.68392 6.0351L5.44424 6.20643C5.41319 6.22861 5.37183 6.19851 5.38328 6.16216L5.47219 5.88127L5.23518 5.70622C5.20451 5.68362 5.2203 5.63492 5.25846 5.63458L5.55308 5.63234L5.64628 5.35284C5.65835 5.31663 5.70953 5.31663 5.7216 5.35284Z" fill="#F5F5F5"/>
<path d="M5.7216 6.81487L5.8148 7.09437L6.10942 7.09661C6.14758 7.09694 6.16337 7.14555 6.1327 7.16825L5.89569 7.3433L5.9846 7.62419C5.99614 7.66053 5.95469 7.69068 5.92364 7.66845L5.68392 7.49712L5.44424 7.66845C5.41319 7.69063 5.37183 7.66053 5.38328 7.62419L5.47219 7.3433L5.23518 7.16825C5.20451 7.14555 5.2203 7.09694 5.25846 7.09661L5.55308 7.09437L5.64628 6.81487C5.65835 6.77871 5.70953 6.77871 5.7216 6.81487Z" fill="#F5F5F5"/>
<path d="M6.85655 1.6833L6.94975 1.9628L7.24437 1.96505C7.28253 1.96538 7.29831 2.01403 7.26765 2.03669L7.03064 2.21174L7.11955 2.49263C7.13109 2.52897 7.08964 2.55912 7.05859 2.53689L6.81892 2.36556L6.57924 2.53689C6.54819 2.55907 6.50684 2.52897 6.51829 2.49263L6.60719 2.21174L6.37019 2.03669C6.33952 2.01398 6.35531 1.96538 6.39347 1.96505L6.68809 1.9628L6.78129 1.6833C6.79335 1.64714 6.84448 1.64714 6.85655 1.6833Z" fill="#F5F5F5"/>
<path d="M6.85655 3.14554L6.94975 3.42505L7.24437 3.42729C7.28253 3.42763 7.29831 3.47628 7.26765 3.49893L7.03064 3.67398L7.11955 3.95487C7.13109 3.99121 7.08964 4.02136 7.05859 3.99913L6.81892 3.8278L6.57924 3.99913C6.54819 4.02131 6.50684 3.99126 6.51829 3.95487L6.60719 3.67398L6.37019 3.49893C6.33952 3.47632 6.35531 3.42763 6.39347 3.42729L6.68809 3.42505L6.78129 3.14554C6.79335 3.10934 6.84448 3.10934 6.85655 3.14554Z" fill="#F5F5F5"/>
<path d="M6.85655 4.60757L6.94975 4.88707L7.24437 4.88931C7.28253 4.88965 7.29831 4.93825 7.26765 4.96095L7.03064 5.136L7.11955 5.41689C7.13109 5.45324 7.08964 5.48338 7.05859 5.46116L6.81892 5.28983L6.57924 5.46116C6.54819 5.48334 6.50684 5.45324 6.51829 5.41689L6.60719 5.136L6.37019 4.96095C6.33952 4.93825 6.35531 4.88965 6.39347 4.88931L6.68809 4.88707L6.78129 4.60757C6.79335 4.57136 6.84448 4.57136 6.85655 4.60757Z" fill="#F5F5F5"/>
<path d="M6.85655 6.0696L6.94975 6.34911L7.24437 6.35135C7.28253 6.35168 7.29831 6.40029 7.26765 6.42299L7.03064 6.59804L7.11955 6.87892C7.13109 6.91527 7.08964 6.94541 7.05859 6.92319L6.81892 6.75186L6.57924 6.92319C6.54819 6.94541 6.50684 6.91527 6.51829 6.87892L6.60719 6.59804L6.37019 6.42299C6.33952 6.40029 6.35531 6.35168 6.39347 6.35135L6.68809 6.34911L6.78129 6.0696C6.79335 6.03345 6.84448 6.03345 6.85655 6.0696Z" fill="#F5F5F5"/>
<path d="M7.99156 0.966483L8.08476 1.24599L8.37938 1.24823C8.41754 1.24856 8.43332 1.29721 8.40266 1.31987L8.16565 1.49487L8.25456 1.77576C8.2661 1.8121 8.22465 1.84225 8.1936 1.82002L7.95393 1.64869L7.71425 1.82002C7.6832 1.84225 7.64185 1.8121 7.6533 1.77576L7.7422 1.49487L7.5052 1.31987C7.47453 1.29717 7.49032 1.24852 7.52848 1.24823L7.8231 1.24599L7.91629 0.966483C7.92827 0.930281 7.97949 0.930281 7.99156 0.966483Z" fill="#F5F5F5"/>
<path d="M7.99156 2.42861L8.08476 2.70812L8.37938 2.71036C8.41754 2.71069 8.43332 2.7593 8.40266 2.782L8.16565 2.95705L8.25456 3.23793C8.2661 3.27428 8.22465 3.30442 8.1936 3.2822L7.95393 3.11087L7.71425 3.2822C7.6832 3.30437 7.64185 3.27428 7.6533 3.23793L7.7422 2.95705L7.5052 2.782C7.47453 2.7593 7.49032 2.71069 7.52848 2.71036L7.8231 2.70812L7.91629 2.42861C7.92827 2.39246 7.97949 2.39246 7.99156 2.42861Z" fill="#F5F5F5"/>
<path d="M7.99156 3.89081L8.08476 4.17031L8.37938 4.17255C8.41754 4.17289 8.43332 4.22149 8.40266 4.24419L8.16565 4.41924L8.25456 4.70013C8.2661 4.73647 8.22465 4.76662 8.1936 4.74439L7.95393 4.57306L7.71425 4.74439C7.6832 4.76657 7.64185 4.73652 7.6533 4.70013L7.7422 4.41924L7.5052 4.24419C7.47453 4.22149 7.49032 4.17289 7.52848 4.17255L7.8231 4.17031L7.91629 3.89081C7.92827 3.8546 7.97949 3.8546 7.99156 3.89081Z" fill="#F5F5F5"/>
<path d="M7.99156 5.35284L8.08476 5.63234L8.37938 5.63458C8.41754 5.63492 8.43332 5.68357 8.40266 5.70622L8.16565 5.88127L8.25456 6.16216C8.2661 6.19851 8.22465 6.22865 8.1936 6.20643L7.95393 6.0351L7.71425 6.20643C7.6832 6.22861 7.64185 6.19851 7.6533 6.16216L7.7422 5.88127L7.5052 5.70622C7.47453 5.68362 7.49032 5.63492 7.52848 5.63458L7.8231 5.63234L7.91629 5.35284C7.92827 5.31663 7.97949 5.31663 7.99156 5.35284Z" fill="#F5F5F5"/>
<path d="M7.99156 6.81487L8.08476 7.09437L8.37938 7.09661C8.41754 7.09694 8.43332 7.14555 8.40266 7.16825L8.16565 7.3433L8.25456 7.62419C8.2661 7.66053 8.22465 7.69068 8.1936 7.66845L7.95393 7.49712L7.71425 7.66845C7.6832 7.69063 7.64185 7.66053 7.6533 7.62419L7.7422 7.3433L7.5052 7.16825C7.47453 7.14555 7.49032 7.09694 7.52848 7.09661L7.8231 7.09437L7.91629 6.81487C7.92827 6.77871 7.97949 6.77871 7.99156 6.81487Z" fill="#F5F5F5"/>
<path d="M9.12633 1.6833L9.21953 1.9628L9.51415 1.96505C9.55231 1.96538 9.5681 2.01403 9.53743 2.03669L9.30042 2.21174L9.38933 2.49263C9.40087 2.52897 9.35942 2.55912 9.32837 2.53689L9.0887 2.36556L8.84902 2.53689C8.81797 2.55907 8.77662 2.52897 8.78806 2.49263L8.87697 2.21174L8.63997 2.03669C8.6093 2.01398 8.62508 1.96538 8.66324 1.96505L8.95786 1.9628L9.05106 1.6833C9.06308 1.64714 9.11426 1.64714 9.12633 1.6833Z" fill="#F5F5F5"/>
<path d="M9.12633 3.14554L9.21953 3.42505L9.51415 3.42729C9.55231 3.42763 9.5681 3.47628 9.53743 3.49893L9.30042 3.67398L9.38933 3.95487C9.40087 3.99121 9.35942 4.02136 9.32837 3.99913L9.0887 3.8278L8.84902 3.99913C8.81797 4.02131 8.77662 3.99126 8.78806 3.95487L8.87697 3.67398L8.63997 3.49893C8.6093 3.47632 8.62508 3.42763 8.66324 3.42729L8.95786 3.42505L9.05106 3.14554C9.06308 3.10934 9.11426 3.10934 9.12633 3.14554Z" fill="#F5F5F5"/>
<path d="M9.12633 4.60757L9.21953 4.88707L9.51415 4.88931C9.55231 4.88965 9.5681 4.93825 9.53743 4.96095L9.30042 5.136L9.38933 5.41689C9.40087 5.45324 9.35942 5.48338 9.32837 5.46116L9.0887 5.28983L8.84902 5.46116C8.81797 5.48334 8.77662 5.45324 8.78806 5.41689L8.87697 5.136L8.63997 4.96095C8.6093 4.93825 8.62508 4.88965 8.66324 4.88931L8.95786 4.88707L9.05106 4.60757C9.06308 4.57136 9.11426 4.57136 9.12633 4.60757Z" fill="#F5F5F5"/>
<path d="M9.12633 6.0696L9.21953 6.34911L9.51415 6.35135C9.55231 6.35168 9.5681 6.40029 9.53743 6.42299L9.30042 6.59804L9.38933 6.87892C9.40087 6.91527 9.35942 6.94541 9.32837 6.92319L9.0887 6.75186L8.84902 6.92319C8.81797 6.94541 8.77662 6.91527 8.78806 6.87892L8.87697 6.59804L8.63997 6.42299C8.6093 6.40029 8.62508 6.35168 8.66324 6.35135L8.95786 6.34911L9.05106 6.0696C9.06308 6.03345 9.11426 6.03345 9.12633 6.0696Z" fill="#F5F5F5"/>
<path d="M10.2613 0.966483L10.3545 1.24599L10.6492 1.24823C10.6873 1.24856 10.7031 1.29721 10.6724 1.31987L10.4354 1.49487L10.5243 1.77576C10.5359 1.8121 10.4944 1.84225 10.4634 1.82002L10.2237 1.64869L9.98403 1.82002C9.95298 1.84225 9.91163 1.8121 9.92308 1.77576L10.012 1.49487L9.77498 1.31987C9.74431 1.29717 9.76009 1.24852 9.79825 1.24823L10.0929 1.24599L10.1861 0.966483C10.1981 0.930281 10.2492 0.930281 10.2613 0.966483Z" fill="#F5F5F5"/>
<path d="M10.2613 2.42861L10.3545 2.70812L10.6492 2.71036C10.6873 2.71069 10.7031 2.7593 10.6724 2.782L10.4354 2.95705L10.5243 3.23793C10.5359 3.27428 10.4944 3.30442 10.4634 3.2822L10.2237 3.11087L9.98403 3.2822C9.95298 3.30437 9.91163 3.27428 9.92308 3.23793L10.012 2.95705L9.77498 2.782C9.74431 2.7593 9.76009 2.71069 9.79825 2.71036L10.0929 2.70812L10.1861 2.42861C10.1981 2.39246 10.2492 2.39246 10.2613 2.42861Z" fill="#F5F5F5"/>
<path d="M10.2613 3.89081L10.3545 4.17031L10.6492 4.17255C10.6873 4.17289 10.7031 4.22149 10.6724 4.24419L10.4354 4.41924L10.5243 4.70013C10.5359 4.73647 10.4944 4.76662 10.4634 4.74439L10.2237 4.57306L9.98403 4.74439C9.95298 4.76657 9.91163 4.73652 9.92308 4.70013L10.012 4.41924L9.77498 4.24419C9.74431 4.22149 9.76009 4.17289 9.79825 4.17255L10.0929 4.17031L10.1861 3.89081C10.1981 3.8546 10.2492 3.8546 10.2613 3.89081Z" fill="#F5F5F5"/>
<path d="M10.2613 5.35284L10.3545 5.63234L10.6492 5.63458C10.6873 5.63492 10.7031 5.68357 10.6724 5.70622L10.4354 5.88127L10.5243 6.16216C10.5359 6.19851 10.4944 6.22865 10.4634 6.20643L10.2237 6.0351L9.98403 6.20643C9.95298 6.22861 9.91163 6.19851 9.92308 6.16216L10.012 5.88127L9.77498 5.70622C9.74431 5.68362 9.76009 5.63492 9.79825 5.63458L10.0929 5.63234L10.1861 5.35284C10.1981 5.31663 10.2492 5.31663 10.2613 5.35284Z" fill="#F5F5F5"/>
<path d="M10.2613 6.81487L10.3545 7.09437L10.6492 7.09661C10.6873 7.09694 10.7031 7.14555 10.6724 7.16825L10.4354 7.3433L10.5243 7.62419C10.5359 7.66053 10.4944 7.69068 10.4634 7.66845L10.2237 7.49712L9.98403 7.66845C9.95298 7.69063 9.91163 7.66053 9.92308 7.62419L10.012 7.3433L9.77498 7.16825C9.74431 7.14555 9.76009 7.09694 9.79825 7.09661L10.0929 7.09437L10.1861 6.81487C10.1981 6.77871 10.2492 6.77871 10.2613 6.81487Z" fill="#F5F5F5"/>
</svg>
